<?xml version="1.0" standalone="no"?>
<!DOCTYPE svg PUBLIC "-//W3C//DTD SVG 20010904//EN"
 "http://www.w3.org/TR/2001/REC-SVG-20010904/DTD/svg10.dtd">
<svg version="1.0" xmlns="http://www.w3.org/2000/svg"
 width="700.000000pt" height="700.000000pt" viewBox="0 0 700.000000 700.000000"
 preserveAspectRatio="xMidYMid meet">
<metadata>
Created by potrace 1.11, written by Peter Selinger 2001-2013
</metadata>
<g transform="translate(0.000000,700.000000) scale(0.100000,-0.100000)"
fill="#000000" stroke="none">
<path d="M1748 6455 c-13 -22 -27 -48 -33 -57 -68 -118 -274 -474 -383 -664
-35 -60 -67 -116 -73 -124 -10 -16 -359 -621 -392 -680 -11 -19 -86 -150 -167
-290 -81 -140 -156 -271 -167 -290 -11 -19 -49 -85 -85 -146 -36 -61 -68 -117
-71 -125 -4 -8 -80 -140 -170 -294 -163 -279 -164 -280 -149 -310 14 -28 245
-429 291 -506 11 -19 24 -41 28 -49 4 -8 28 -51 54 -95 60 -103 222 -382 250
-432 12 -21 63 -110 114 -198 51 -88 101 -176 112 -195 11 -19 77 -133 146
-252 70 -120 127 -220 127 -223 0 -3 9 -18 19 -33 10 -15 105 -175 209 -357
104 -181 198 -344 208 -362 11 -18 49 -85 87 -150 l67 -118 1732 0 c1141 0
1733 3 1735 10 2 6 17 33 33 60 16 28 39 68 51 90 12 22 41 72 64 110 23 39
53 90 67 115 19 35 307 534 418 725 10 17 42 73 72 125 30 52 90 156 133 230
143 246 707 1224 728 1260 28 49 110 192 122 211 6 9 15 25 22 36 9 15 9 24 0
40 -7 12 -19 34 -28 50 -25 45 -342 596 -384 665 -5 9 -20 34 -31 55 -12 21
-79 137 -149 258 -168 289 -163 282 -198 345 -16 30 -36 62 -43 71 -8 8 -14
18 -14 21 0 3 -63 115 -141 249 -77 134 -193 334 -256 444 -64 110 -124 214
-133 230 -49 86 -272 472 -280 485 -5 8 -19 33 -31 55 -12 22 -24 42 -26 45
-3 3 -783 5 -1733 5 l-1729 0 -23 -40z"/>
</g>
</svg>
